<svg id="Capa_1" data-name="Capa 1" xmlns="http://www.w3.org/2000/svg" viewBox="0 0 777.07 746"><defs><style>.cls-1,.cls-3{fill:#fff}.cls-2,.cls-3{stroke:#fff;stroke-miterlimit:10}.cls-2{fill:none;stroke-linecap:round;stroke-width:40px}.cls-3{stroke-width:30px}</style></defs><g id="Centro"><circle class="cls-1" cx="388.54" cy="373" r="131.5"/><path class="cls-1" d="M388.54 334A39 39 0 11361 345.42 38.26 38.26 0 01388.54 334m0-185c-123.72 0-224 100.29-224 224s100.28 224 224 224 224-100.29 224-224-100.29-224-224-224z"/></g><path class="cls-2" d="M455.17 26.34a353.15 353.15 0 00-182.26 13.13C89.94 102.9-8.42 305.66 55 488.63"/><circle class="cls-3" cx="55.01" cy="488.63" r="40"/><path class="cls-2" d="M321.91 719.65a353 353 0 00182.25-13.12c183-63.44 281.33-266.19 217.9-449.16"/><circle class="cls-3" cx="722.06" cy="257.37" r="40"/></svg>